<?xml version="1.0" encoding="UTF-8"?>
<svg id="Layer_1" data-name="Layer 1" xmlns="http://www.w3.org/2000/svg" viewBox="0 0 100.89 85.07">
  <defs>
    <style>
      .cls-1 {
        fill: none;
        stroke: #333f48;
        stroke-miterlimit: 10;
        stroke-width: 2px;
      }

      .cls-2 {
        fill: #f1f2f2;
      }

      .cls-3 {
        fill: #333f48;
      }
    </style>
  </defs>
  <g>
    <g>
      <rect class="cls-2" x="4.84" y="4.63" width="47.65" height="74.44"/>
      <rect class="cls-2" x="49.54" y="22.24" width="47.65" height="56.82"/>
    </g>
    <rect class="cls-1" x="8.71" y="7.8" width="39.9" height="68.1"/>
    <rect class="cls-1" x="53.43" y="26.42" width="39.9" height="49.05"/>
  </g>
  <g>
    <rect class="cls-3" x="12.51" y="12.08" width="9.1" height="11.92"/>
    <rect class="cls-3" x="12.51" y="26.73" width="9.1" height="11.92"/>
    <rect class="cls-3" x="12.51" y="41.69" width="9.1" height="11.92"/>
    <rect class="cls-3" x="12.51" y="56.66" width="9.1" height="11.92"/>
    <rect class="cls-3" x="24.24" y="12.08" width="9.1" height="11.92"/>
    <rect class="cls-3" x="24.24" y="26.73" width="9.1" height="11.92"/>
    <rect class="cls-3" x="24.24" y="41.69" width="9.1" height="11.92"/>
    <rect class="cls-3" x="24.24" y="56.66" width="9.1" height="11.92"/>
    <rect class="cls-3" x="35.72" y="12.08" width="9.1" height="11.92"/>
    <rect class="cls-3" x="35.72" y="26.73" width="9.1" height="11.92"/>
    <rect class="cls-3" x="35.72" y="41.69" width="9.1" height="11.92"/>
    <rect class="cls-3" x="35.72" y="56.66" width="9.1" height="11.92"/>
    <rect class="cls-3" x="57.21" y="29.69" width="9.1" height="11.92"/>
    <rect class="cls-3" x="57.21" y="44.66" width="9.1" height="11.92"/>
    <rect class="cls-3" x="57.21" y="59.62" width="9.1" height="11.92"/>
    <rect class="cls-3" x="68.94" y="29.69" width="9.1" height="11.92"/>
    <rect class="cls-3" x="68.94" y="44.66" width="9.1" height="11.92"/>
    <rect class="cls-3" x="68.94" y="59.62" width="9.1" height="11.92"/>
    <rect class="cls-3" x="80.42" y="29.69" width="9.1" height="11.92"/>
    <rect class="cls-3" x="80.42" y="44.66" width="9.1" height="11.92"/>
    <rect class="cls-3" x="80.42" y="59.62" width="9.1" height="11.92"/>
  </g>
</svg>