<?xml version="1.0" encoding="UTF-8"?>
<svg id="Layer_2" data-name="Layer 2" xmlns="http://www.w3.org/2000/svg" viewBox="0 0 154.53 100.46">
  <defs>
    <style>
      .cls-1, .cls-2, .cls-3 {
        fill: #fff;
      }

      .cls-2 {
        stroke: #fff;
      }

      .cls-2, .cls-3 {
        stroke-miterlimit: 10;
        stroke-width: 3px;
      }

      .cls-4 {
        fill: #bd3827;
      }

      .cls-3 {
        stroke: #333f48;
      }
    </style>
  </defs>
  <g id="Layer_1-2" data-name="Layer 1">
    <g>
      <g>
        <path class="cls-2" d="M28.55,98.96c-.3,0-.58-.06-.84-.18-14.75-1.5-26.2-14.11-26.2-29,0-16.09,13.09-29.18,29.18-29.18.56,0,1.13.02,1.71.05-1.16-3.19-1.77-6.58-1.77-9.98C30.62,14.59,43.7,1.5,59.79,1.5c9.93,0,19.1,5.03,24.46,13.27,3.7-2.43,8.07-3.75,12.53-3.75,12.59,0,22.83,10.24,22.83,22.83,0,2.48-.41,4.94-1.21,7.29,1.8-.35,3.62-.53,5.45-.53,16.09,0,29.18,13.09,29.18,29.18s-13.09,29.18-29.18,29.18H28.55Z"/>
        <path class="cls-3" d="M123.85,42.72c-3.26,0-6.36.6-9.25,1.66,1.83-3.09,2.9-6.68,2.9-10.53,0-11.44-9.27-20.71-20.71-20.71-5,0-9.58,1.77-13.16,4.72-4.57-8.47-13.53-14.23-23.83-14.23-14.95,0-27.07,12.12-27.07,27.07,0,4.53,1.13,8.79,3.09,12.54-1.67-.32-3.38-.5-5.14-.5-14.95,0-27.07,12.12-27.07,27.07s10.99,25.87,24.94,26.96v.11h95.31c14.95,0,27.07-12.12,27.07-27.07s-12.12-27.07-27.07-27.07Z"/>
      </g>
      <path class="cls-1" d="M123.1,100.28c-17.31,0-31.4-14.08-31.4-31.4s14.08-31.4,31.4-31.4,31.4,14.09,31.4,31.4-14.09,31.4-31.4,31.4Z"/>
      <path class="cls-4" d="M123.1,40.03c-15.93,0-28.85,12.92-28.85,28.85s12.92,28.85,28.85,28.85,28.85-12.92,28.85-28.85-12.92-28.85-28.85-28.85ZM142.05,59.36l-3.94,3.94-17.07,17.07-4.97,4.97-9.6-9.6c-.05-.26-.08-.53-.08-.8,0-2.28,1.84-4.12,4.12-4.12.4,0,.78.06,1.15.16l4.92,4.92,17.29-17.29,3.49-3.49c.19-.03.39-.04.59-.04,2.28,0,4.12,1.84,4.12,4.11,0,.06,0,.12,0,.17Z"/>
    </g>
  </g>
</svg>